<svg height="35" viewBox="0 0 162 35" width="162" xmlns="http://www.w3.org/2000/svg" xmlns:xlink="http://www.w3.org/1999/xlink"><mask id="a" fill="#fff"><path d="m0 .28h161.810289v34.72h-161.810289z" fill="#fff" fill-rule="evenodd"/></mask><g fill="#404042" fill-rule="evenodd" opacity=".75"><path d="m9.83775451 27.5003826h4.30000379v-10.0516956c0-.7258696-.323391-2.5918261-.821876-3.6753044-.5115789-1.0868261-1.7844361-2.4816522-3.57100373-2.7653043-1.79844361-.292174-2.77318421-.1159566-3.55882331.1147391-.77254511.2386087-1.45952255.7496087-1.92116165 1.1674783v-7.46991309l-4.26498496 2.18065217v20.49934782h4.26498496v-9.051913c0-1.295.3538421-2.7771739 1.57554135-3.3304783 1.21165038-.5533043 2.58256015-.1141304 3.07891354.3761739.49909398.4918261.91840601 1.2533044.91840601 2.9001305z" mask="url(#a)"/><path d="m19.6951195 21.4508609c.1373346-.7054783.7993422-1.1866522 1.2911279-1.3333479.4942218-.1363478 1.390094-.1567391 2.3821917-.0517391.9674323.098 1.7567256.6068696 1.7567256.6068696v2.0312174s-.1933647.364-.6613985.7824782c-.4643797.4078261-1.0953271.5612174-1.348376.6351739-.2390413.069087-.6927631.069087-1.5956391.069087-.8949586 0-1.5021541-.6960435-1.6675037-1.0134783-.1808797-.3387391-.2920263-1.0262608-.1571279-1.7262608m3.7540151 6.0495217c.8867368-.2577826 1.6760301-1.1023478 1.6760301-1.1023478v1.1023478h4.2725977v-11.2459565c0-1.2052174-.4811278-2.8882609-1.8334624-3.9437391-1.348985-1.05-2.916-1.448087-4.7759549-1.448087-1.8413797 0-4.2168722.5106957-6.1228083 1.6279565.8118271 1.5132174 1.6263948 3.0142609 1.6263948 3.0142609s1.5179887-.7946522 3.2278195-1.0390435c1.7098309-.2544348 2.6401128.0748696 3.1285489.6522174.4799098.5752174.4412368 1.295.5030526 2.1514348-.9914887-.3694783-1.7402819-.6266522-3.1550413-.6266522-1.3937481 0-3.0167933.0538696-4.8913647 1.4243478-1.8794436 1.3735218-1.7527669 3.9866522-1.7527669 3.9866522s-.1348985 3.2580435 2.5353609 4.8750435c2.6830489 1.617 5.2427707.6881304 5.561594.5715652"/><path d="m35.0354538 22.4402957v-6.1615218c1.0140225-1.2027826 1.9443045-1.3917826 2.6014398-1.3917826.6458684 0 1.5450902.1622174 2.187609 1.3026087.6601805 1.1513478.6601805 2.4883478.6601805 4.045087 0 1.5506521-.5609098 3.5706087-2.6093572 3.5706087-2.0469248 0-2.8398721-1.365-2.8398721-1.365zm3.9580376 5.4140434c1.6148233 0 3.2777594-1.0713043 3.9549924-2.0105217.6680978-.9279565 1.3447218-2.1082174 1.6017294-3.5483913.2725376-1.4493044.2545714-2.5218261.2545714-2.7525218 0-.2236956-.0441541-2.2734782-.4031729-3.6424347-.3705903-1.3735218-1.1568384-3.1363044-2.5837782-4.0782609-1.4184136-.9373913-2.7500414-.9672174-3.3505376-.9672174-.59197 0-2.0140376.0794348-3.440673 1.3625652v-7.3825652l-4.280515 2.1782174v20.4871739h4.2893459v-.9291739s1.3766954 1.2831304 3.0901804 1.2831304z"/><path d="m52.8011898 14.5762826c2.6589925 0 2.8477895 2.9311739 2.8477895 2.9311739h-5.7038007s.1851428-2.9311739 2.8560112-2.9311739m-3.1523007 12.432c1.7220113.8083478 3.874297 1.1598696 5.8460075.5347391 1.9601391-.6260434 3.684891-2.346826 3.684891-2.346826l-3.0195338-2.5227392s-.8033008 1.1318696-2.7436467 1.1318696c-1.944609 0-3.2329962-1.049087-3.4257518-3.0559565h9.7586729s.1065789-1.6763479-.0511579-3.2650435c-.1568233-1.5838261-1.2935639-4.4398261-3.2473083-5.6392609-1.958921-1.1903043-4.3194925-1.3023043-6.3749436-.4108695-2.0554511.8987391-3.5585188 3.2376521-3.9461616 4.781913-.3794211 1.5445652-.5417256 3.9476956-.1422068 5.9347826.4031729 1.9922609 1.9400414 4.0663913 3.6611391 4.8573913"/><path d="m68.5186308 10.8423913c-2.1370601 0-3.3709398 1.5144348-3.3709398 1.5144348v-1.168087h-4.279297v16.3115218h4.3036579v-8.7719131c0-1.2073478.0910489-2.1782174.7914248-2.9223478.6955038-.7532609 1.755812-.658 1.9330376-.658.1647406 0 1.3946616-.0535652 2.5128271 1.0414783.2996391-1.26 1.1032443-4.1704783 1.1032443-4.1704783s-.8529361-1.1766087-2.9939549-1.1766087"/><path d="m115.987889 15.0039826c2.248207 0 3.638605 2.0233044 3.77259 2.3060435.245436-.2492609 2.81673-2.8599565 2.81673-2.8599565s-1.871222-3.5873479-6.451376-3.5873479c-4.5765 0-7.84756 3.4872174-7.84756 8.4806522 0 5.0077391 3.296639 8.5028696 7.690127 8.5028696 4.395621 0 6.608809-3.6263044 6.608809-3.6263044l-2.678786-2.5915217s-1.505504 2.1395652-3.880692 2.1395652c-2.36727 0-3.388906-2.2664783-3.388906-4.4866956 0-2.2205218 1.125169-4.2773044 3.359064-4.2773044"/><path d="m130.028691 23.7602217c-1.835899 0-3.038718-1.6936956-3.038718-4.4063478 0-2.7032174.98753-4.3588696 3.038718-4.3588696 2.049056 0 3.04085 1.9009566 3.04085 4.2861305 0 2.3927826-.918711 4.4790869-3.04085 4.4790869m-.017966-12.8976521c-4.154752 0-7.360038 3.3262174-7.360038 8.4913043 0 5.1739131 3.166004 8.4925218 7.432816 8.4925218 2.962895 0 7.317102-1.6793914 7.317102-8.4925218 0-3.6905217-1.5457-8.4913043-7.38988-8.4913043"/><path d="m155.988277 10.8548696c-2.947669 0-5.176082 2.0732174-5.176082 2.0732174s-1.387658-2.0656087-4.45835-2.0656087c-2.524094 0-3.630992 1.4703043-3.630992 1.4703043v-1.1364348h-4.269553v16.3039131h4.269553v-8.8784348c0-1.6495652.241477-3.7349565 2.53262-3.7349565 2.310022 0 2.734511 1.5743913 2.734511 3.9416087v8.6717826h4.281733v-9.4332609c0-1.9956087.899831-3.1801304 2.629455-3.1801304 1.731756 0 2.619711.8564347 2.619711 3.8414782v8.7719131h4.289346v-9.8538696c0-5.0518696-2.878546-6.7915217-5.821952-6.7915217"/><path d="m89.7029628.28012174c9.5927143 0 17.3690192 7.77304348 17.3690192 17.35999996 0 9.5875653-7.7763049 17.36-17.3690192 17.36-9.5921053 0-17.3684098-7.7724347-17.3684098-17.36 0-9.58695648 7.7763045-17.35999996 17.3684098-17.35999996zm9.0610071 6.5317913h-17.7977707v4.62517396h12.1737519c-4.3529887 4.6872608-6.9870113 10.7702608-7.1904248 17.864-.013094.442826-.0219248.8847391 0 1.3226956l.0319737.0006087h5.0579323l.0045677-.0121739c-.0027406-.1606957-.0045677-.3216957-.0045677-.4836087 0-7.266913 2.9522369-13.8453913 7.7239286-18.6005217l.000609-.0009131z"/></g></svg>