<svg id="Layer_1" data-name="Layer 1" xmlns="http://www.w3.org/2000/svg" viewBox="0 0 270 47"><defs><style>.cls-1{fill:#ffffff;}.cls-2{fill:none;}</style></defs><path class="cls-1" d="M111.11,7.83,118.7,3V14.88c.15.14.4-.05.54-.13,3.7-2.33,7.81-3.42,11.9,0,3.39,3.06,3.35,7,3.35,12.55V39.66h-7.35V27.31c.12-4.49-.16-6.71-4.1-7.23-3.64,0-4.42,2.5-4.47,7.23V39.65h-7.45ZM38.37,8.88a18.63,18.63,0,0,0-14.3-6.13c-10.73,0-19.43,8.34-19.43,18.63S13.34,40,24.06,40a19.7,19.7,0,0,0,15.5-7.38l-5.63-4.49a13.53,13.53,0,0,1-9.87,4.67A11.67,11.67,0,0,1,12.15,21.38,11.67,11.67,0,0,1,24.07,10a13.77,13.77,0,0,1,9.42,3.9ZM41,32s.25,6.15,5.61,7.44c6.85,1.4,8.51-1.16,12.65-1.22A11.69,11.69,0,0,1,65.45,40l.06-27.65H58l-.19,16.43c0,4.14-5.67,5.17-8.2,3.11A6.31,6.31,0,0,1,48.44,28V12.38H41Zm26.71,7.67h6.9l-.07-12.34c0-4.18,2-6.06,5.21-6.11,3.6.11,5.05,2.13,5.05,6.11V39.65h7.31V27.31c0-4,1.77-6.06,4.72-6.06,3.2.16,4.81,2,4.81,6.06V39.65H109V21.83c0-8.7-11.1-12.1-18.7-6.13a1.9,1.9,0,0,1-.55.35c-.37-.08-.37-.27-.5-.39-2.08-2-4-3.22-6.69-3.12s-5.12,1.74-9,1.95a10.28,10.28,0,0,1-5.91-2.66Zm69-7.7s.24,6.15,5.6,7.44c6.85,1.4,8.51-1.16,12.64-1.22A11.66,11.66,0,0,1,161.11,40l.06-27.62h-7.52l-.19,16.4c0,4.14-5.66,5.17-8.2,3.11A6.24,6.24,0,0,1,144.09,28V12.38h-7.46Zm34.63,7.67,0-10.82c0-2.5,3.45-8.52,5.29-8a8.59,8.59,0,0,1,2.25,1.49c1.29.67,2.05,1.09,3.84.34a5.21,5.21,0,0,0,1.8-8.49,6.71,6.71,0,0,0-4.84-2c-2.8-.09-5,1.44-8.1,4.79,0,.1,0-4.47,0-4.52h-7.92V39.57Zm35.32-6.39v4.68q-.08,2-1.26,2.08H202.8l.06,6.3h6.2c2.85-.18,4.49-1.87,4.94-5.1V33.27l10-20.9H215.6l-5.15,12-6.13-12-8.48,0ZM190.9,10.17a3.67,3.67,0,1,0-3.65-3.67A3.65,3.65,0,0,0,190.9,10.17ZM187.2,39.66h7.31V12.38h-7.31Zm66.4-18.36v13.3c.12,3.16,2,4.92,5.72,5.24l5.78-.11L265,33.51c-2.76.34-4.14-.21-4.13-1.65V16.16l3.47-2.63,0-8.21-3.44,2.56V3l-7.3,5v5.31l-3,2.23v8.06ZM235.39,39.56a17.55,17.55,0,0,0,12.5-5.82,60.87,60.87,0,0,0-4.58-4.49c-1.56,2-5.73,3.81-9.27,3-5.11-1.33-5.34-5-5.31-5h20.42a15.15,15.15,0,0,0,0-1.67c-.06-6.08-3.9-13.24-13.76-13.36-8-.1-14.39,6.1-14.39,13.63S227.44,39.56,235.39,39.56Zm0-20.88a6.4,6.4,0,0,1,4.89,2.7H230S231.42,18.75,235.39,18.68Z"/><rect class="cls-2" width="270" height="47"/></svg>